<?xml version="1.0" standalone="no"?>
<!DOCTYPE svg PUBLIC "-//W3C//DTD SVG 20010904//EN"
 "http://www.w3.org/TR/2001/REC-SVG-20010904/DTD/svg10.dtd">
<svg version="1.0" xmlns="http://www.w3.org/2000/svg"
 width="640.000000pt" height="640.000000pt" viewBox="0 0 640.000000 640.000000"
 preserveAspectRatio="xMidYMid meet">
<metadata>
Created by potrace 1.14, written by Peter Selinger 2001-2017
</metadata>
<g transform="translate(0.000000,640.000000) scale(0.100000,-0.100000)"
fill="#000000" stroke="none">
<path d="M0 5697 l0 -704 93 -11 c50 -7 110 -19 132 -27 22 -8 50 -14 61 -15
32 0 166 -52 319 -124 39 -18 81 -37 95 -41 14 -4 45 -16 69 -27 63 -29 95
-29 99 0 5 32 -136 176 -198 204 -25 11 -58 27 -75 36 -101 52 -122 61 -136
62 -9 0 -35 7 -59 15 -63 22 -220 45 -310 45 l-80 0 1 68 c1 49 3 60 9 42 7
-22 8 -21 11 15 2 38 2 38 6 8 2 -18 8 -33 14 -33 5 0 9 -6 9 -14 0 -10 10
-14 29 -14 26 1 30 6 36 37 4 20 10 38 14 41 4 3 24 43 44 90 72 162 111 193
119 96 5 -55 52 -164 75 -173 36 -14 29 38 -30 202 -14 39 -36 120 -51 180
-25 108 -83 529 -88 634 -2 62 7 70 82 65 25 -2 90 -5 145 -8 119 -5 138 -11
129 -38 -4 -13 1 -24 14 -34 12 -8 22 -31 26 -59 10 -64 29 -104 75 -160 23
-27 50 -69 62 -93 11 -24 31 -61 43 -81 13 -20 29 -63 36 -95 10 -51 31 -101
76 -188 8 -14 14 -33 14 -42 0 -8 11 -36 25 -62 14 -26 25 -54 25 -62 0 -8 8
-22 18 -31 10 -9 19 -31 20 -49 2 -31 1 -33 -14 -18 -14 15 -19 15 -52 -4 -21
-11 -62 -24 -92 -29 -202 -34 -250 -44 -299 -62 -30 -10 -68 -19 -83 -19 -15
0 -28 -3 -28 -7 1 -43 93 -46 265 -9 73 15 146 25 167 23 21 -3 41 -1 44 4 3
5 21 9 41 9 27 0 42 -7 59 -27 13 -16 24 -33 24 -38 0 -19 81 -97 95 -91 8 3
16 -3 18 -12 3 -15 5 -15 12 2 5 11 4 26 -3 37 -7 10 -8 20 -2 24 5 3 11 1 15
-5 4 -6 11 -7 17 -4 7 4 8 2 4 -4 -4 -7 -2 -12 4 -12 6 0 20 -9 32 -20 l21
-19 -31 -32 c-31 -32 -49 -66 -39 -75 8 -9 66 25 131 75 73 57 149 103 276
167 111 57 134 66 215 89 33 10 89 26 125 36 218 63 564 104 865 104 99 -1
211 -5 248 -9 52 -7 71 -6 77 4 6 9 19 10 58 1 33 -7 61 -7 83 -1 19 6 51 10
71 10 39 0 88 18 88 32 0 19 -39 45 -91 60 -236 70 -712 72 -1029 6 -30 -7
-58 -11 -62 -10 -11 3 -199 -45 -278 -69 -107 -34 -126 -39 -141 -39 -21 0
-159 -59 -191 -81 -14 -11 -31 -19 -37 -19 -7 0 -30 -9 -53 -21 -35 -18 -40
-19 -34 -4 3 9 6 21 6 26 0 6 4 7 10 4 15 -10 50 14 50 34 0 10 -7 35 -15 54
-19 47 -19 67 1 67 13 0 15 6 10 28 -3 15 -9 90 -12 167 -7 149 4 225 31 225
8 0 15 -4 15 -10 0 -5 5 -10 11 -10 21 0 56 -48 62 -85 3 -21 17 -58 30 -84
13 -25 27 -62 30 -82 3 -19 13 -53 22 -75 l16 -39 14 38 c7 21 16 71 20 110 4
40 18 108 30 152 29 102 38 182 36 325 -2 89 1 119 13 135 9 11 16 32 16 47 0
22 5 28 23 29 12 0 58 2 101 4 91 4 114 -3 159 -45 61 -59 203 -154 314 -212
62 -31 120 -62 130 -68 10 -5 99 -42 198 -81 271 -107 657 -228 727 -229 26 0
27 -2 17 -27 -5 -14 -25 -51 -44 -82 -63 -105 -72 -191 -18 -191 14 0 41 9 59
20 26 17 36 33 49 78 43 159 48 168 90 152 35 -13 53 -7 65 22 8 20 9 18 9
-15 1 -32 -18 -78 -39 -97 -13 -12 -79 -108 -94 -137 -59 -117 57 -50 130 75
64 110 92 128 159 102 15 -6 45 -7 68 -3 43 7 65 24 162 136 28 31 56 57 63
57 6 0 12 4 12 9 0 6 21 29 46 53 26 24 65 60 88 82 22 21 64 51 91 67 28 16
62 42 78 58 27 29 77 48 97 36 5 -3 10 -14 10 -24 0 -21 23 -44 33 -34 4 3 19
8 34 9 54 6 93 15 93 23 0 4 24 13 53 20 28 7 62 19 74 27 12 8 29 14 36 14 8
0 22 9 32 20 21 24 54 26 81 5 10 -8 37 -15 60 -15 22 0 49 -6 60 -14 18 -14
17 -15 -18 -30 -21 -9 -42 -16 -48 -16 -5 0 -10 -6 -10 -14 0 -8 -7 -17 -15
-20 -12 -4 -14 -10 -5 -25 8 -16 6 -23 -10 -34 -22 -15 -15 -27 24 -41 10 -3
16 -9 13 -13 -4 -3 1 -12 11 -19 15 -12 14 -14 -15 -26 -24 -9 -33 -19 -33
-35 0 -12 -8 -24 -18 -27 -9 -3 -105 -5 -212 -4 -187 0 -200 -1 -318 -31 -68
-17 -142 -39 -165 -49 -23 -11 -69 -30 -102 -42 -187 -74 -395 -244 -395 -323
0 -17 -5 -27 -15 -27 -8 0 -15 -9 -15 -20 0 -28 11 -25 39 13 30 40 130 123
185 154 125 70 257 128 326 143 19 5 60 15 90 23 122 33 168 39 296 39 179 -1
273 -30 403 -126 51 -38 150 -148 169 -188 64 -138 78 -295 43 -488 -21 -113
-59 -196 -153 -337 -27 -39 -48 -73 -48 -76 0 -3 -25 -29 -55 -58 -30 -28 -55
-57 -55 -64 0 -7 -9 -15 -20 -18 -30 -8 -24 -27 8 -27 46 0 166 64 219 117
125 126 200 227 249 335 28 63 36 96 44 180 18 201 14 247 -32 384 -24 74 -51
136 -66 151 -14 15 -31 41 -38 59 -13 31 -12 32 14 42 67 27 117 33 202 26 64
-5 93 -3 111 7 40 22 157 21 205 -2 50 -24 75 -17 72 20 -3 23 0 26 27 23 17
-2 72 -5 124 -8 84 -5 98 -4 142 17 l48 24 1 343 0 342 -3200 0 -3200 0 0
-703z m4077 561 c-3 -7 -5 -2 -5 12 0 14 2 19 5 13 2 -7 2 -19 0 -25z m-31
-65 c-11 -11 -19 6 -11 24 8 17 8 17 12 0 3 -10 2 -21 -1 -24z m-146 -217 c0
-3 -4 -8 -10 -11 -5 -3 -10 -1 -10 4 0 6 5 11 10 11 6 0 10 -2 10 -4z m-87
-171 c-8 -25 -19 -47 -24 -51 -5 -3 -4 6 1 20 6 14 14 37 20 51 17 43 20 27 3
-20z m-1553 -295 c0 -5 -5 -10 -11 -10 -5 0 -7 5 -4 10 3 6 8 10 11 10 2 0 4
-4 4 -10z m520 -31 c0 -5 -4 -9 -10 -9 -5 0 -10 7 -10 16 0 8 5 12 10 9 6 -3
10 -10 10 -16z m-1335 -191 c14 -6 24 -16 22 -22 -5 -15 -107 -86 -124 -86 -7
0 -13 4 -13 9 0 15 60 71 76 71 11 0 13 6 9 20 -7 23 -5 24 30 8z m-1365 -20
c0 -6 -6 -5 -15 2 -8 7 -15 14 -15 16 0 2 7 1 15 -2 8 -4 15 -11 15 -16z
m1160 -72 c7 -9 19 -16 26 -16 8 0 14 -7 14 -15 0 -8 8 -15 18 -14 10 0 12 3
5 6 -7 2 -13 9 -13 15 0 7 5 7 13 -1 8 -6 18 -7 22 -3 5 4 1 -6 -8 -21 -10
-15 -15 -33 -11 -39 5 -7 0 -9 -14 -6 -12 4 -25 1 -28 -4 -8 -12 -15 0 -50 78
-21 49 -22 54 -6 45 10 -5 24 -17 32 -25z"/>
<path d="M520 6315 c7 -9 15 -13 17 -11 7 7 -7 26 -19 26 -6 0 -6 -6 2 -15z"/>
<path d="M4700 5484 c-92 -11 -229 -74 -281 -130 -76 -84 -99 -124 -99 -176 0
-35 4 -48 14 -48 8 0 49 25 91 55 84 60 146 84 243 92 58 5 68 3 140 -32 87
-44 164 -116 213 -201 37 -66 60 -70 79 -15 14 43 9 85 -20 169 -33 93 -142
242 -177 242 -8 0 -29 10 -45 22 -31 21 -89 30 -158 22z"/>
<path d="M935 5189 c-10 -16 3 -71 31 -136 35 -79 70 -123 98 -123 32 0 60 33
53 63 -9 33 -84 146 -102 153 -8 4 -15 18 -15 33 0 18 -3 22 -9 12 -6 -9 -11
-10 -15 -2 -9 14 -33 14 -41 0z"/>
<path d="M2695 5185 c-5 -3 -62 -13 -125 -25 -468 -82 -782 -197 -682 -248 23
-13 141 4 307 44 33 8 76 15 95 17 l35 2 8 -70 c10 -82 7 -86 -81 -105 -88
-18 -166 -95 -117 -114 9 -3 44 1 78 9 34 7 82 15 107 17 42 2 45 1 45 -22 0
-14 8 -47 17 -75 29 -86 29 -85 -35 -105 -114 -36 -291 -138 -329 -190 -21
-29 -16 -85 8 -94 8 -3 53 4 99 15 47 11 91 19 98 17 6 -1 50 10 97 25 85 27
178 51 340 88 123 29 329 78 372 89 38 11 98 69 98 96 0 20 -35 50 -79 70 -34
15 -201 21 -222 8 -5 -3 -30 -9 -57 -14 -26 -5 -76 -16 -111 -25 -36 -8 -71
-14 -79 -13 -7 2 -22 28 -33 58 -36 99 -36 97 12 110 183 45 199 54 199 103 0
60 -61 71 -208 38 -73 -17 -84 -17 -97 -4 -8 8 -15 19 -15 24 0 5 -10 23 -22
40 -20 26 -20 31 -7 45 9 8 33 16 55 18 128 10 355 61 383 87 43 41 -13 90
-101 88 -24 0 -47 -2 -53 -4z"/>
<path d="M660 5070 c0 -12 7 -20 17 -20 10 0 35 -17 58 -39 68 -65 211 -169
244 -176 56 -12 68 17 25 60 -14 14 -51 44 -82 68 -149 110 -262 157 -262 107z"/>
<path d="M1 4530 c0 -74 3 -129 7 -123 15 23 143 27 285 8 161 -21 247 -15
247 16 0 37 -30 79 -95 133 -80 65 -141 87 -260 93 -69 4 -100 1 -129 -11 -47
-20 -44 -20 -49 2 -3 9 -5 -44 -6 -118z"/>
<path d="M3340 4542 c-18 -6 -74 -48 -152 -114 -73 -63 -121 -157 -122 -240
-1 -50 3 -60 29 -87 39 -42 96 -57 129 -36 13 9 27 24 31 33 13 34 46 169 60
248 8 45 21 100 30 122 19 47 17 81 -5 74z"/>
<path d="M4178 4517 c-7 -6 -33 -23 -58 -36 -25 -13 -64 -46 -88 -73 -47 -55
-50 -83 -12 -122 17 -17 22 -18 52 -5 18 7 38 18 43 24 21 20 75 104 75 115 0
6 6 23 14 38 27 54 29 72 7 72 -11 0 -26 -6 -33 -13z"/>
<path d="M6150 4429 c-36 -4 -115 -8 -175 -9 -61 -1 -117 -5 -125 -10 -17 -10
-14 -12 60 -30 78 -19 110 -31 110 -41 0 -6 -6 -9 -12 -7 -7 2 -13 -2 -14 -7
0 -6 9 -8 20 -7 12 2 18 1 14 -4 -7 -7 85 -74 101 -74 4 0 21 -11 37 -25 27
-23 27 -25 8 -25 -17 0 -7 -14 50 -68 39 -38 95 -85 124 -106 l52 -38 0 130 0
130 -41 35 c-35 30 -50 36 -112 43 -40 4 -95 7 -123 6 -46 -2 -55 2 -89 33
-21 19 -35 38 -31 42 3 4 18 -5 32 -20 29 -31 43 -35 144 -40 83 -5 157 -21
180 -41 38 -33 40 -30 40 58 l0 86 -92 -1 c-51 -1 -122 -5 -158 -10z m17 -35
c-3 -3 -12 -4 -19 -1 -8 3 -5 6 6 6 11 1 17 -2 13 -5z m33 -24 c0 -5 -2 -10
-4 -10 -3 0 -8 5 -11 10 -3 6 -1 10 4 10 6 0 11 -4 11 -10z m-80 -91 c0 -6 -4
-7 -10 -4 -5 3 -10 11 -10 16 0 6 5 7 10 4 6 -3 10 -11 10 -16z m264 -206 c8
-19 2 -16 -25 13 -23 25 -23 26 -2 13 13 -7 25 -19 27 -26z"/>
<path d="M5387 4314 c-1 -2 -47 -5 -102 -8 -55 -2 -103 -5 -106 -5 -4 -1 -14
-17 -24 -37 -16 -35 -16 -37 2 -56 16 -16 34 -19 109 -18 49 0 107 4 129 10
22 5 58 10 81 10 42 0 43 -2 45 -52 0 -9 9 -34 20 -54 10 -21 24 -64 31 -96 8
-40 17 -58 30 -61 24 -7 27 -102 3 -111 -16 -6 -35 28 -35 60 0 8 -7 17 -15
20 -9 4 -15 19 -15 40 0 19 -4 34 -8 34 -5 0 -22 25 -38 55 -16 31 -30 51 -32
45 -2 -5 -8 -8 -13 -4 -5 3 -9 0 -9 -5 0 -6 -9 -11 -20 -11 -28 0 -26 -34 3
-53 13 -8 23 -26 25 -43 1 -20 -1 -25 -7 -15 -7 10 -9 11 -13 0 -3 -9 -12 -8
-36 6 -34 21 -40 31 -20 37 9 3 8 9 -4 21 -20 20 -35 22 -41 5 -4 -10 -8 -10
-23 0 -11 6 -26 15 -34 18 -8 3 -23 10 -34 16 -24 13 -109 21 -104 9 1 -4 45
-53 97 -107 101 -106 234 -277 246 -315 5 -13 18 -40 31 -59 31 -47 80 -201
89 -275 3 -33 12 -89 20 -125 34 -156 19 -439 -33 -643 -6 -21 -29 -75 -53
-120 -23 -45 -54 -105 -68 -133 -14 -29 -44 -73 -66 -99 -90 -105 -172 -192
-206 -217 -21 -15 -40 -32 -44 -37 -3 -6 -72 -66 -153 -133 -81 -67 -149 -125
-152 -128 -3 -3 -66 -54 -140 -114 -74 -60 -136 -114 -138 -121 -7 -31 118
-26 222 9 99 34 341 171 395 224 8 8 32 25 53 38 21 14 58 44 82 67 24 23 80
76 125 117 46 41 106 106 135 145 59 80 146 223 146 242 0 7 11 36 24 65 13
29 29 73 36 98 6 25 16 53 21 62 13 26 43 315 41 406 -1 48 2 82 8 82 6 0 10
-4 10 -9 0 -5 16 -26 35 -45 19 -20 35 -41 35 -46 0 -6 16 -43 36 -83 25 -51
34 -80 30 -99 -3 -16 -1 -28 5 -28 6 0 7 -5 3 -11 -3 -6 3 -24 15 -40 l22 -29
-28 -1 c-26 -1 -25 -2 7 -9 19 -5 55 -15 80 -24 25 -8 97 -32 160 -51 63 -20
121 -39 128 -42 9 -4 12 135 12 676 0 599 -2 681 -15 681 -8 0 -15 4 -15 9 0
5 -9 7 -20 4 -15 -4 -19 -11 -15 -32 l5 -26 -13 27 c-7 15 -23 37 -35 48 -12
12 -22 31 -21 43 l0 22 11 -22 c10 -21 21 -28 31 -20 2 1 11 -4 20 -12 26 -21
20 -3 -13 39 -16 21 -30 42 -30 48 0 14 -97 112 -111 112 -8 0 -8 -5 1 -15 7
-9 10 -19 6 -22 -4 -4 -19 8 -34 27 -50 64 -62 73 -94 66 -16 -3 -27 -2 -23 3
3 5 -4 12 -15 16 -11 3 -20 10 -20 15 0 15 -82 66 -143 89 -67 24 -71 25 -61
10 3 -6 1 -15 -6 -19 -9 -6 -6 -11 11 -21 13 -6 30 -18 37 -26 7 -7 20 -13 28
-13 8 0 14 -4 14 -10 0 -15 -8 -13 -70 25 -32 19 -65 35 -73 35 -15 0 -38 -32
-53 -72 -3 -10 -10 -18 -15 -18 -5 0 -9 -14 -9 -30 0 -34 -27 -106 -36 -97 -3
3 3 41 14 84 11 43 22 98 24 122 l3 45 -48 18 c-39 14 -220 32 -230 22z m590
-200 c-9 -9 -57 20 -57 33 0 11 8 9 31 -7 16 -12 28 -24 26 -26z m-479 -129
c-3 -3 -9 2 -12 12 -6 14 -5 15 5 6 7 -7 10 -15 7 -18z m748 -77 c11 -17 -22
-6 -46 15 -50 45 -54 60 -7 27 27 -19 51 -38 53 -42z m-726 -45 c0 -11 -4 -11
-20 -3 -11 6 -20 15 -20 19 0 5 9 7 20 4 11 -3 20 -12 20 -20z m864 -119 c3
-8 2 -12 -4 -9 -6 3 -10 10 -10 16 0 14 7 11 14 -7z m-689 -114 c3 -5 1 -10
-4 -10 -6 0 -11 5 -11 10 0 6 2 10 4 10 3 0 8 -4 11 -10z m72 -43 c-2 -6 -15
-14 -30 -18 -21 -6 -29 -3 -37 11 -5 9 -7 19 -5 22 9 9 76 -5 72 -15z m-30
-89 c-3 -8 -6 -5 -6 6 -1 11 2 17 5 13 3 -3 4 -12 1 -19z m79 -180 c8 -37 13
-43 37 -46 15 -2 27 -9 27 -18 0 -13 12 -18 33 -15 4 0 7 -5 7 -13 0 -16 -19
-24 -74 -31 -40 -5 -40 -6 -54 103 -7 46 -6 62 3 62 7 0 16 -19 21 -42z m-106
-428 c0 -5 -4 -10 -10 -10 -5 0 -10 5 -10 10 0 6 5 10 10 10 6 0 10 -4 10 -10z"/>
<path d="M4280 4269 c-47 -10 -115 -18 -151 -19 -51 0 -70 -4 -87 -20 -12 -12
-22 -25 -22 -30 0 -27 23 -61 50 -75 61 -32 195 13 277 92 42 41 56 74 31 72
-7 -1 -51 -10 -98 -20z"/>
<path d="M3639 4256 c-115 -26 -205 -96 -312 -244 -68 -94 -96 -165 -104 -258
-8 -100 1 -144 31 -144 13 0 29 -6 35 -13 10 -13 75 -16 87 -4 3 2 -8 14 -24
26 -40 28 -58 74 -44 106 16 34 25 31 59 -13 79 -108 106 -126 263 -174 39
-12 140 -4 172 13 59 32 114 133 130 240 10 67 10 80 -6 113 -9 20 -18 56 -19
79 -2 36 1 42 19 45 14 2 32 -8 50 -27 34 -36 71 -33 80 6 9 35 -9 63 -92 145
-87 85 -80 82 -171 102 -82 18 -79 18 -154 2z m31 -290 c0 -28 -24 -51 -45
-42 -19 7 -19 30 1 50 23 24 44 20 44 -8z"/>
<path d="M1676 4126 c-48 -7 -81 -16 -84 -24 -6 -19 68 -84 186 -164 84 -57
111 -70 153 -74 45 -4 53 -2 79 25 28 28 36 54 30 105 -4 38 -34 67 -104 100
-84 40 -146 48 -260 32z"/>
<path d="M6350 3948 c1 -29 50 -93 50 -65 0 24 -30 87 -41 87 -5 0 -9 -10 -9
-22z"/>
<path d="M1420 3863 c-14 -3 -33 -13 -43 -24 -10 -10 -24 -19 -31 -19 -15 0
-55 -50 -72 -90 -20 -47 -44 -128 -44 -149 0 -12 -8 -28 -19 -37 -28 -25 -14
-70 29 -92 34 -17 35 -18 41 -92 7 -96 17 -118 72 -157 63 -46 121 -60 189
-45 29 6 82 16 117 22 35 7 71 15 80 19 97 46 116 59 134 88 10 18 23 33 27
33 4 0 11 12 15 28 8 32 33 62 52 62 8 0 25 -12 38 -26 22 -24 25 -25 52 -10
44 22 57 43 54 88 -5 89 -91 213 -196 283 -62 41 -173 89 -253 111 -50 13
-186 17 -242 7z m317 -269 c6 -16 -15 -37 -29 -28 -4 3 -8 14 -8 25 0 23 28
26 37 3z m-386 -127 c18 -14 79 -136 79 -159 0 -8 11 -28 25 -44 14 -16 25
-32 25 -35 0 -3 18 -16 41 -28 45 -26 45 -32 1 -33 -59 -2 -153 65 -186 131
-26 53 -38 122 -25 153 13 31 17 33 40 15z"/>
<path d="M4031 3810 c-26 -111 -57 -167 -116 -207 -20 -14 -35 -27 -32 -29 2
-2 27 3 55 11 38 12 59 26 85 58 60 74 83 139 68 193 -7 28 -8 28 -15 7 -4
-13 -11 -23 -16 -23 -5 0 -10 10 -12 23 -2 14 -8 3 -17 -33z"/>
<path d="M1 3834 c0 -11 3 -14 6 -6 3 7 2 16 -1 19 -3 4 -6 -2 -5 -13z"/>
<path d="M2 3785 c0 -16 2 -22 5 -12 2 9 2 23 0 30 -3 6 -5 -1 -5 -18z"/>
<path d="M1017 3790 c-20 -4 -40 -9 -43 -13 -12 -11 18 -47 59 -71 96 -55 157
-41 157 38 0 31 -5 46 -16 50 -20 8 -108 6 -157 -4z"/>
<path d="M2 3710 c0 -14 2 -19 5 -12 2 6 2 18 0 25 -3 6 -5 1 -5 -13z"/>
<path d="M2 3635 c0 -16 2 -22 5 -12 2 9 2 23 0 30 -3 6 -5 -1 -5 -18z"/>
<path d="M1045 3603 c-16 -2 -48 -8 -70 -13 -22 -5 -60 -12 -84 -14 -56 -6
-66 -22 -37 -61 53 -68 119 -88 215 -65 92 22 131 95 75 139 -26 20 -37 22
-99 14z"/>
<path d="M1 3584 c0 -11 3 -14 6 -6 3 7 2 16 -1 19 -3 4 -6 -2 -5 -13z"/>
<path d="M2 3520 c0 -14 2 -19 5 -12 2 6 2 18 0 25 -3 6 -5 1 -5 -13z"/>
<path d="M1181 3494 c0 -11 3 -14 6 -6 3 7 2 16 -1 19 -3 4 -6 -2 -5 -13z"/>
<path d="M1 3464 c0 -11 3 -14 6 -6 3 7 2 16 -1 19 -3 4 -6 -2 -5 -13z"/>
<path d="M4950 3456 c0 -13 12 -57 26 -98 57 -162 68 -274 42 -436 -20 -126
-33 -155 -139 -324 -57 -91 -93 -135 -185 -223 -123 -118 -135 -141 -89 -171
47 -30 171 -2 243 55 22 17 49 31 59 31 27 0 55 28 112 114 114 169 222 456
181 481 -9 6 -9 9 0 15 6 4 14 40 17 81 7 98 -22 208 -83 320 -70 127 -184
223 -184 155z"/>
<path d="M1 3384 c0 -11 3 -14 6 -6 3 7 2 16 -1 19 -3 4 -6 -2 -5 -13z"/>
<path d="M2376 3321 c-24 -25 -27 -35 -22 -65 8 -43 21 -46 40 -8 8 16 22 34
30 41 27 22 15 61 -18 61 -1 0 -15 -13 -30 -29z"/>
<path d="M1 3324 c0 -11 3 -14 6 -6 3 7 2 16 -1 19 -3 4 -6 -2 -5 -13z"/>
<path d="M2 3260 c0 -14 2 -19 5 -12 2 6 2 18 0 25 -3 6 -5 1 -5 -13z"/>
<path d="M2857 3238 c-14 -14 -28 -43 -31 -64 -8 -43 6 -94 25 -94 6 0 37 16
69 35 32 19 63 35 70 35 21 0 120 64 120 77 0 17 -10 16 -34 -2 -28 -21 -86
-19 -111 5 -11 11 -35 23 -52 26 -25 5 -37 1 -56 -18z"/>
<path d="M4696 3231 c-3 -4 -10 -46 -15 -92 -12 -98 -76 -279 -125 -349 -36
-52 -56 -88 -56 -101 0 -16 61 -9 88 10 15 10 32 20 39 22 21 7 113 100 129
131 24 46 54 168 54 220 0 25 -9 66 -19 91 -25 58 -78 96 -95 68z"/>
<path d="M1 3204 c0 -11 3 -14 6 -6 3 7 2 16 -1 19 -3 4 -6 -2 -5 -13z"/>
<path d="M2370 3186 c0 -9 5 -16 10 -16 6 0 10 4 10 9 0 6 -4 13 -10 16 -5 3
-10 -1 -10 -9z"/>
<path d="M2485 3183 c-11 -3 -24 -12 -28 -19 -5 -9 -17 -12 -33 -8 -19 5 -23
3 -18 -9 10 -26 -33 -60 -69 -54 l-31 4 23 -18 c18 -15 41 -19 100 -19 42 -1
94 -7 116 -15 61 -22 67 -20 61 21 -6 37 -21 71 -40 90 -12 12 -53 35 -58 33
-2 -1 -12 -4 -23 -6z"/>
<path d="M1 3134 c0 -11 3 -14 6 -6 3 7 2 16 -1 19 -3 4 -6 -2 -5 -13z"/>
<path d="M0 2988 c0 -98 3 -118 15 -118 8 0 15 8 15 18 0 14 -2 15 -10 2 -8
-13 -10 -12 -10 3 0 13 8 17 33 17 142 2 156 5 183 32 29 28 28 62 -1 91 -19
20 -109 46 -165 49 -25 2 -48 8 -52 13 -4 6 -8 -43 -8 -107z"/>
<path d="M139 2865 c-3 -2 -21 -5 -40 -6 -18 -1 -49 -6 -66 -11 l-33 -10 0
-79 0 -79 29 0 c16 0 34 6 40 14 6 8 50 27 97 42 67 22 86 33 90 50 9 34 -5
64 -33 75 -26 9 -76 12 -84 4z"/>
<path d="M2822 2658 c-1 -10 -8 -15 -16 -12 -21 8 -29 -12 -27 -67 1 -53 -3
-57 -37 -33 -20 14 -22 14 -22 0 0 -9 -6 -16 -13 -16 -18 0 -43 -29 -51 -60
-4 -14 -4 -20 1 -14 10 13 41 27 70 30 12 2 36 10 54 19 29 15 33 16 41 2 8
-14 12 -14 51 0 23 8 64 17 92 20 27 2 55 9 62 15 10 8 13 7 13 -5 0 -16 29
-27 78 -27 31 0 42 12 22 25 -9 5 -78 19 -153 30 -15 2 -32 7 -37 10 -5 3 -12
0 -15 -5 -5 -8 -13 -6 -25 5 -17 15 -20 14 -43 -9 -15 -14 -28 -26 -31 -26 -3
0 -7 30 -9 68 -2 37 -4 59 -5 50z"/>
<path d="M0 2281 c0 -345 1 -381 16 -381 11 0 14 -5 10 -16 -3 -9 -6 -23 -7
-32 -1 -10 -4 -7 -9 8 -5 14 -8 -62 -9 -180 -1 -189 0 -203 14 -176 11 21 12
31 4 36 -8 6 -8 9 1 15 7 4 16 1 21 -6 7 -9 9 -1 7 26 -2 31 -7 40 -20 39 -20
-2 -24 20 -8 39 6 7 21 25 34 41 l24 29 16 -31 c9 -17 16 -37 16 -44 0 -16 48
-121 59 -128 4 -3 24 -30 44 -60 30 -45 34 -56 22 -63 -8 -4 -38 -50 -66 -102
-27 -52 -72 -125 -100 -162 -27 -37 -49 -74 -49 -81 0 -7 -4 -11 -8 -8 -5 3
-10 -50 -10 -119 -2 -112 1 -129 23 -176 29 -64 76 -128 93 -129 6 0 12 3 12
7 0 4 7 61 16 127 14 108 33 186 81 336 8 25 21 70 29 100 8 30 19 72 25 92
l12 36 31 -20 c17 -12 49 -43 71 -69 79 -95 267 -228 377 -265 37 -13 80 -29
95 -37 15 -7 64 -22 108 -32 44 -10 116 -28 160 -40 146 -42 361 -73 553 -81
257 -10 569 32 529 73 -4 3 -58 8 -120 10 -61 1 -141 7 -177 12 -36 6 -92 13
-125 16 -33 3 -96 14 -140 25 -44 10 -129 30 -190 45 -275 64 -444 119 -517
167 -48 31 -138 88 -179 113 -72 43 -143 102 -168 139 -16 23 -41 50 -55 59
-14 10 -43 43 -65 74 -22 32 -55 78 -72 103 -89 125 -162 291 -204 465 -26
105 -27 118 -21 292 3 103 2 184 -3 188 -18 11 -42 -8 -78 -64 -29 -42 -45
-57 -65 -59 -28 -3 -40 19 -18 33 6 4 8 10 5 15 -3 4 -7 45 -10 90 -9 172 -14
79 -15 -289z m50 124 c0 -8 -4 -15 -10 -15 -5 0 -7 7 -4 15 4 8 8 15 10 15 2
0 4 -7 4 -15z m-33 -37 c-3 -8 -6 -5 -6 6 -1 11 2 17 5 13 3 -3 4 -12 1 -19z"/>
<path d="M5970 2558 c0 -2 6 -21 14 -42 10 -28 11 -48 4 -67 -14 -40 46 -160
111 -224 28 -28 51 -53 51 -56 0 -3 -15 -4 -32 -1 l-33 4 35 -36 c19 -21 54
-49 77 -64 24 -15 43 -30 43 -34 0 -5 6 -8 13 -8 8 0 22 -9 32 -20 10 -11 15
-20 11 -20 -9 0 -47 22 -63 36 -29 27 -156 85 -165 76 -13 -13 36 -69 83 -93
22 -11 39 -22 39 -25 0 -3 -5 -2 -10 1 -6 4 -26 8 -45 10 -27 2 -33 0 -28 -14
9 -24 65 -81 80 -81 7 0 13 -5 13 -11 0 -7 -7 -8 -17 -4 -43 18 -53 17 -53 -1
0 -31 83 -87 204 -139 36 -15 38 -17 23 -32 -13 -14 -21 -14 -42 -5 -30 14
-75 16 -75 4 0 -10 55 -52 67 -52 5 0 17 -13 26 -30 10 -16 24 -30 31 -30 8 0
16 -7 20 -15 7 -19 -1 -19 -94 1 -45 9 -100 14 -137 11 -57 -4 -63 -3 -89 24
-22 24 -28 41 -35 106 -14 149 -38 246 -84 349 -34 74 -100 114 -187 114 -47
0 -58 -19 -32 -57 47 -66 51 -79 59 -198 5 -66 9 -158 9 -203 1 -81 2 -85 31
-108 28 -23 29 -26 13 -38 -24 -18 -23 -19 18 -88 20 -32 33 -65 30 -73 -3 -8
-24 -19 -48 -25 -64 -17 -145 -106 -186 -203 -18 -42 -32 -83 -32 -90 0 -22
-49 -157 -76 -206 -13 -25 -24 -53 -24 -62 0 -9 -8 -27 -18 -40 -10 -13 -28
-42 -41 -63 -18 -31 -19 -41 -9 -48 10 -7 9 -8 -3 -6 -15 3 -57 -44 -103 -117
-35 -54 -219 -227 -263 -246 -24 -10 -43 -23 -43 -28 0 -6 -14 -18 -30 -26
-17 -9 -29 -19 -26 -23 2 -4 -7 -8 -20 -8 -13 -1 -39 -13 -57 -27 -17 -13 -43
-28 -57 -32 -37 -12 -70 -35 -70 -51 0 -7 -5 -16 -12 -20 -7 -5 -9 -2 -5 8 5
13 1 14 -26 5 -100 -32 -196 -72 -221 -94 l-29 -24 242 3 c191 2 244 6 250 17
6 9 10 9 12 2 3 -8 19 -8 61 1 31 7 55 15 53 18 -2 3 12 7 31 7 19 1 40 6 47
11 7 5 35 17 62 25 94 28 233 90 343 151 76 44 181 139 213 194 17 28 34 52
38 52 9 0 52 95 71 155 7 22 16 45 21 51 5 6 11 36 15 67 4 31 11 57 15 57 5
0 9 9 9 20 0 19 39 110 51 120 3 3 14 20 24 39 9 18 31 49 48 68 l32 35 30
-35 c30 -35 165 -287 165 -308 0 -6 14 -38 30 -71 17 -33 30 -75 30 -96 0 -20
5 -44 10 -52 6 -10 10 105 10 335 l0 350 -56 78 c-67 91 -66 107 6 107 l50 0
0 258 0 257 -38 18 c-20 9 -52 20 -69 23 -18 4 -37 11 -42 18 -18 21 72 10
112 -14 l37 -22 0 261 0 261 -27 10 c-16 6 -37 14 -48 19 -11 5 -29 12 -40 14
-11 3 -60 16 -110 30 -73 20 -205 36 -205 25z m251 -439 l44 -41 -45 33 c-60
44 -66 49 -53 49 6 0 30 -18 54 -41z m104 -71 c19 -13 37 -29 40 -36 5 -13 -6
-9 -30 10 -5 4 -21 17 -35 28 -34 27 -18 25 25 -2z m-100 -58 c3 -5 2 -10 -4
-10 -5 0 -13 5 -16 10 -3 6 -2 10 4 10 5 0 13 -4 16 -10z m80 -160 c15 -6 25
-13 22 -16 -6 -6 -67 23 -67 32 0 3 4 3 9 0 4 -3 21 -10 36 -16z m-275 -260
c0 -5 -4 -10 -10 -10 -5 0 -10 5 -10 10 0 6 5 10 10 10 6 0 10 -4 10 -10z
m-250 -340 c0 -5 -7 -10 -15 -10 -8 0 -15 5 -15 10 0 6 7 10 15 10 8 0 15 -4
15 -10z m-239 -673 c-16 -16 -26 0 -10 19 9 11 15 12 17 4 2 -6 -1 -17 -7 -23z
m179 -107 c0 -5 -4 -10 -10 -10 -5 0 -10 5 -10 10 0 6 5 10 10 10 6 0 10 -4
10 -10z m-860 -410 c0 -5 -4 -10 -10 -10 -5 0 -10 5 -10 10 0 6 5 10 10 10 6
0 10 -4 10 -10z"/>
<path d="M3178 2513 c7 -3 16 -2 19 1 4 3 -2 6 -13 5 -11 0 -14 -3 -6 -6z"/>
<path d="M1016 2415 c-38 -79 -28 -215 20 -280 34 -47 93 -103 114 -110 11 -4
20 -10 20 -15 0 -8 20 -19 93 -49 73 -30 239 5 257 55 5 13 7 29 4 36 -11 26
-129 102 -177 115 -111 28 -266 183 -267 266 0 11 -8 17 -24 17 -17 0 -28 -9
-40 -35z"/>
<path d="M2535 2410 c-3 -5 -1 -10 4 -10 6 0 11 5 11 10 0 6 -2 10 -4 10 -3 0
-8 -4 -11 -10z"/>
<path d="M3201 2327 c-29 -24 -59 -55 -67 -69 -9 -17 -26 -29 -46 -33 -43 -9
-88 -36 -88 -52 0 -13 -117 -94 -169 -116 -14 -7 -32 -17 -39 -24 -16 -16
-113 -17 -181 -2 -45 9 -99 40 -200 114 -19 14 -48 25 -66 25 -28 0 -33 -4
-44 -40 -6 -22 -15 -40 -19 -40 -4 0 -8 -10 -9 -22 -2 -20 -14 -35 -88 -108
-102 -100 -104 -102 -96 -123 6 -16 2 -26 -17 -42 -25 -22 -25 -22 -7 -53 18
-30 20 -31 37 -15 14 12 17 25 13 45 -7 28 -6 28 42 26 26 -1 66 6 88 14 23
10 44 13 51 8 5 -5 20 -7 32 -4 13 4 31 -2 48 -15 15 -12 33 -21 40 -21 8 0
14 -4 14 -10 0 -6 20 -8 48 -5 26 3 58 1 72 -4 14 -5 34 -12 45 -17 11 -4 27
-6 37 -5 9 1 22 -7 30 -17 15 -22 48 -31 142 -38 40 -4 75 -12 83 -20 19 -19
27 -18 48 6 11 12 22 17 28 11 5 -5 22 0 42 13 30 20 55 65 61 111 1 11 3 23
3 26 1 4 10 9 20 12 11 3 22 17 26 36 4 17 11 31 16 31 5 0 7 11 3 25 -5 20
-1 26 19 34 14 6 30 19 36 29 12 22 97 112 106 112 3 0 27 -9 52 -21 58 -26
141 -40 168 -27 31 14 58 64 51 94 -6 24 -76 104 -91 104 -4 0 -30 23 -57 52
-47 49 -52 52 -106 55 -54 3 -60 0 -111 -40z"/>
<path d="M558 2323 c-22 -6 -29 -26 -34 -98 -8 -112 60 -312 142 -421 130
-172 366 -323 519 -331 173 -9 253 -8 312 4 142 29 209 89 126 112 -48 14 -99
14 -124 1 -13 -7 -19 -7 -19 0 0 6 -28 10 -67 10 -38 0 -90 7 -117 15 -27 8
-61 15 -75 15 -35 0 -245 112 -309 164 -55 46 -127 133 -158 191 -66 124 -123
244 -130 272 -7 33 -31 74 -42 72 -4 -1 -14 -3 -24 -6z m274 -488 c0 -5 -5
-11 -11 -13 -6 -2 -11 4 -11 13 0 9 5 15 11 13 6 -2 11 -8 11 -13z"/>
<path d="M1 1424 c0 -11 3 -14 6 -6 3 7 2 16 -1 19 -3 4 -6 -2 -5 -13z"/>
<path d="M4310 1413 c-77 -28 -65 -118 30 -226 49 -56 65 -65 139 -83 105 -25
112 -17 56 66 -19 29 -35 54 -35 57 0 2 -13 31 -30 65 -16 33 -30 66 -30 72 0
7 -10 22 -23 34 -23 21 -71 28 -107 15z"/>
<path d="M4129 1327 c-43 -30 -44 -67 0 -134 17 -26 40 -67 50 -89 11 -23 24
-45 30 -49 20 -12 33 48 28 131 -5 87 -20 129 -53 151 -18 12 -25 10 -55 -10z
m79 -80 c2 -12 -3 -17 -17 -17 -15 0 -21 6 -21 21 0 25 33 22 38 -4z"/>
<path d="M3890 1184 c-46 -15 -113 -35 -235 -72 -83 -25 -149 -46 -190 -60
-16 -6 -82 -24 -145 -42 -63 -17 -117 -35 -120 -40 -3 -5 -42 -10 -88 -11 -45
-1 -82 -6 -82 -10 0 -5 -15 -8 -32 -7 -18 1 -80 -11 -138 -26 -58 -15 -149
-31 -203 -35 -54 -4 -102 -12 -107 -17 -5 -5 -7 -19 -4 -31 14 -52 287 -65
569 -27 123 16 255 43 270 54 6 4 35 15 65 25 50 16 275 127 377 186 54 31
121 86 134 110 12 23 -5 24 -71 3z"/>
<path d="M2412 860 c-12 -5 -27 -20 -32 -32 -5 -13 -9 -17 -9 -9 -1 19 -31 40
-58 41 -26 0 -72 -20 -74 -32 -3 -19 -5 -23 -11 -33 -29 -47 -36 -258 -8 -275
15 -9 50 14 50 32 0 5 14 30 32 56 18 26 42 74 55 107 19 52 22 56 24 30 1
-16 1 -38 0 -47 -3 -22 40 -101 73 -139 14 -16 26 -33 26 -39 0 -5 9 -10 19
-10 27 0 41 48 41 137 0 75 -22 178 -44 200 -16 17 -58 24 -84 13z"/>
<path d="M4235 714 c-75 -18 -161 -45 -250 -80 -38 -14 -108 -39 -155 -54
-127 -41 -187 -71 -310 -155 -62 -42 -118 -81 -124 -86 -25 -21 -82 -59 -103
-68 -12 -6 -40 -22 -62 -36 -22 -14 -48 -25 -58 -25 -9 0 -30 -4 -47 -9 -17
-6 -74 -17 -126 -25 -101 -16 -160 -12 -270 18 -30 9 -63 16 -73 16 -11 0 -26
9 -35 19 -15 17 -75 37 -292 101 -153 44 -316 50 -452 14 -116 -29 -117 -52
-5 -78 121 -28 267 -79 372 -131 51 -25 97 -45 103 -45 6 0 23 -11 38 -25 15
-14 33 -25 40 -25 7 0 20 -8 30 -17 16 -17 56 -18 501 -21 326 -2 483 1 483 8
0 5 9 10 20 10 11 0 20 6 20 14 0 8 8 17 18 21 24 7 129 113 156 157 12 18 55
67 96 109 69 70 139 118 300 207 25 13 52 30 60 36 8 7 29 18 45 25 46 19 169
97 189 120 19 21 19 21 -15 20 -19 0 -61 -7 -94 -15z"/>
<path d="M163 492 c-26 -27 -90 -171 -104 -237 -12 -60 -14 -175 -3 -227 l6
-28 523 0 c368 0 532 3 552 11 41 17 105 28 223 38 89 8 112 7 150 -7 25 -9
49 -22 53 -29 5 -8 27 -13 54 -13 39 0 44 2 38 17 -4 10 -12 32 -18 48 -23 66
-41 81 -189 156 -147 75 -371 104 -468 61 -26 -11 -71 -23 -100 -27 -30 -4
-77 -15 -105 -25 -27 -10 -77 -21 -110 -25 -33 -3 -81 -9 -107 -12 -34 -4 -70
2 -135 21 -179 55 -179 55 -188 144 -13 131 -34 171 -72 134z"/>
<path d="M6379 229 c-30 -63 -60 -114 -98 -169 l-38 -55 75 -3 c41 -2 76 -1
79 1 2 2 2 62 1 132 -3 125 -3 126 -19 94z"/>
<path d="M5940 116 c-36 -7 -67 -9 -70 -4 -5 7 -26 2 -83 -18 -9 -4 -16 -14
-15 -22 2 -9 -5 -18 -14 -20 -11 -2 -18 3 -18 12 0 9 -3 16 -6 16 -6 0 -125
-68 -134 -77 -3 -3 106 -3 242 -1 248 3 273 7 273 40 0 6 10 17 23 26 20 13
22 13 16 -2 -3 -9 -3 -16 0 -16 12 0 56 32 56 40 0 14 -101 38 -155 38 -27 -1
-79 -6 -115 -12z"/>
</g>
</svg>
